<svg version="1.1" xmlns="http://www.w3.org/2000/svg" xmlns:xlink="http://www.w3.org/1999/xlink" width="800px" height="800px" viewBox="0,0,256,256"><g fill="#ffffff" fill-rule="nonzero" stroke="none" stroke-width="1" stroke-linecap="butt" stroke-linejoin="miter" stroke-miterlimit="10" stroke-dasharray="" stroke-dashoffset="0" font-family="none" font-weight="none" font-size="none" text-anchor="none" style="mix-blend-mode: normal"><g transform="translate(-0.39583,-0.39567) scale(10.66667,10.66667)"><path d="M20.7457,3.32851c-0.3905,-0.39053 -1.0237,-0.39053 -1.4142,0l-7.2944,7.29439l-7.29435,-7.29439c-0.39052,-0.39053 -1.02369,-0.39053 -1.41421,0c-0.39053,0.39052 -0.39053,1.02369 0,1.41421l7.29436,7.29438l-7.29434,7.2943c-0.39053,0.3906 -0.39053,1.0237 0,1.4143c0.39052,0.3905 1.02369,0.3905 1.41421,0l7.29433,-7.2944l7.2944,7.2944c0.3905,0.3905 1.0237,0.3905 1.4142,0c0.3905,-0.3906 0.3905,-1.0237 0,-1.4142l-7.2944,-7.2944l7.2944,-7.29438c0.3905,-0.39052 0.3905,-1.02369 0,-1.41421z"></path></g></g></svg>